<mxfile host="app.diagrams.net" modified="2021-10-28T09:17:54.729Z" agent="5.0 (Windows NT 10.0; Win64; x64) AppleWebKit/537.36 (KHTML, like Gecko) Chrome/94.0.4606.81 Safari/537.36" etag="174wmyErBQ4tUUwGGorE" version="15.6.1" type="github">
  <diagram id="mFgV5_7U-bqLbS9MCXDc" name="Page-1">
    <mxGraphModel dx="684" dy="1112" grid="0" gridSize="10" guides="1" tooltips="1" connect="1" arrows="1" fold="1" page="1" pageScale="1" pageWidth="827" pageHeight="1169" math="0" shadow="0">
      <root>
        <mxCell id="0" />
        <mxCell id="1" parent="0" />
        <mxCell id="2kzCMtwzIrTYSETT1FgG-1" value="" style="rounded=0;whiteSpace=wrap;html=1;" vertex="1" parent="1">
          <mxGeometry x="268" y="220" width="120" height="60" as="geometry" />
        </mxCell>
        <mxCell id="2kzCMtwzIrTYSETT1FgG-3" value="" style="endArrow=classic;html=1;rounded=0;exitX=1;exitY=0.3333333333333333;exitDx=0;exitDy=0;exitPerimeter=0;" edge="1" parent="1" source="2kzCMtwzIrTYSETT1FgG-10">
          <mxGeometry relative="1" as="geometry">
            <mxPoint x="287" y="257" as="sourcePoint" />
            <mxPoint x="271" y="237" as="targetPoint" />
          </mxGeometry>
        </mxCell>
        <mxCell id="2kzCMtwzIrTYSETT1FgG-4" value="Label" style="edgeLabel;resizable=0;html=1;align=center;verticalAlign=middle;" connectable="0" vertex="1" parent="2kzCMtwzIrTYSETT1FgG-3">
          <mxGeometry relative="1" as="geometry" />
        </mxCell>
        <mxCell id="2kzCMtwzIrTYSETT1FgG-5" value="Source" style="edgeLabel;resizable=0;html=1;align=left;verticalAlign=bottom;" connectable="0" vertex="1" parent="2kzCMtwzIrTYSETT1FgG-3">
          <mxGeometry x="-1" relative="1" as="geometry" />
        </mxCell>
        <mxCell id="2kzCMtwzIrTYSETT1FgG-10" value="平台用户" style="shape=umlActor;verticalLabelPosition=bottom;verticalAlign=top;html=1;outlineConnect=0;" vertex="1" parent="1">
          <mxGeometry x="59" y="217" width="30" height="60" as="geometry" />
        </mxCell>
      </root>
    </mxGraphModel>
  </diagram>
</mxfile>
